<svg width="26" height="24" viewBox="0 0 26 24" fill="none" xmlns="http://www.w3.org/2000/svg">
<path d="M13.9758 1.63579C13.9659 1.5835 13.9593 1.5294 13.9555 1.47459C13.9027 0.71532 14.4743 0.0568953 15.2336 0.00339641C15.9935 -0.0495478 16.6518 0.522754 16.7049 1.28208C16.7579 2.0414 16.1861 2.69982 15.4268 2.75327C15.3789 2.7569 15.3313 2.75761 15.2848 2.75574C15.254 2.76366 15.2354 2.76744 15.209 2.79078C15.1309 2.91256 15.4077 2.88987 15.2195 3.42208C15.2195 3.42208 15.2183 3.48047 15.1974 3.53896C15.1826 3.74328 15.1039 4.34876 15.0927 4.67116C15.1328 4.7179 15.144 4.74069 15.1396 4.85394C15.1218 5.00718 15.0866 5.38258 15.0301 5.62315C14.9822 5.82928 14.8979 5.86861 14.8302 5.91908C14.7347 6.34617 14.7095 6.69993 14.4648 7.21864C14.4426 7.61183 14.4149 7.71898 14.3324 7.91094C14.3232 8.48995 14.3632 8.57613 13.9725 9.49292C13.8716 9.92172 13.9675 10.2183 14.0741 10.6638C14.1829 11.1217 14.4851 11.313 14.53 11.7819C14.6358 12.8861 14.6093 13.638 14.3724 14.5038L14.5792 14.9935C14.8358 15.1112 15.4726 15.433 15.1196 15.9423C15.6167 16.2037 16.368 16.4813 16.9875 17.0112C17.2368 17.2187 17.5001 17.445 17.7364 17.7107C18.1862 17.7809 18.1382 17.8166 18.4716 18.0214C19.4519 18.6225 21.024 19.8149 21.9352 20.6592C22.0922 20.7508 22.1561 20.8168 22.2829 20.8832C22.3026 20.9213 22.3082 20.93 22.3037 20.9403C22.2602 21.0505 22.2618 21.0537 22.2226 21.1415C22.2717 21.1959 22.3634 21.2467 22.4182 21.2942C22.4695 21.3102 22.4695 21.2856 22.5573 21.2641C22.6718 21.3711 22.8134 21.4575 22.8642 21.4523C23.0195 21.413 22.993 21.445 23.124 21.2985C23.1713 21.2499 23.2501 21.2991 23.2501 21.2991C23.2994 21.2413 23.4052 21.1262 23.5462 21.043C23.6587 20.9767 23.8736 20.9694 23.8736 20.9694C23.9455 20.97 23.9319 21.0438 23.9258 21.0677C23.8446 21.1096 23.6724 21.1557 23.5758 21.2271C23.3652 21.4448 23.2003 21.7385 23.2003 21.7385C23.6242 21.6806 23.8846 21.7858 24.2378 21.7453C24.4303 21.7342 24.5726 21.7465 24.7749 21.6002C24.7749 21.6002 24.9693 21.4618 25.1436 21.3884C25.3127 21.3146 25.4733 21.3539 25.6222 21.4622C25.7274 21.5809 25.7907 21.5815 25.6308 21.7491C25.573 21.8141 25.4892 21.8868 25.3828 21.992C25.1958 22.1767 24.944 22.4232 24.6833 22.627C24.4192 22.8332 24.1196 23.0184 23.9326 23.1033C23.4606 23.4424 23.5719 23.3537 23.2009 23.6897C23.1541 23.7316 23.0299 23.8065 22.9696 23.8466C22.8232 23.9427 22.7776 23.8625 22.6822 23.6865C22.6822 23.6865 22.6386 23.6208 22.5665 23.4804C22.4878 23.3273 22.4287 23.152 22.4526 23.155C22.3647 23.1439 21.969 22.68 21.9679 22.5803C21.8842 22.5612 21.5272 22.2155 21.5145 22.1495L21.1982 21.896C20.8364 21.9712 20.7534 21.7465 19.7979 21.0684C19.6888 21.0666 19.5204 21.0077 19.279 20.8286C18.8478 20.4832 17.8134 19.7019 17.638 19.6126C17.4497 19.5167 17.2247 19.4263 17.0866 19.3124C16.8798 19.2743 16.7667 19.2527 16.6633 19.2238C16.5575 19.1949 16.4614 19.1575 16.1939 19.1217C15.7583 19.0675 15.3065 18.8873 14.8764 18.6719C14.6728 18.5754 14.4956 18.5262 14.3203 18.4509C13.9271 18.2848 13.5899 18.1353 13.3287 18.075C13.2289 18.0651 12.7552 17.923 12.5066 17.7778C12.4205 17.7334 12.3706 17.691 12.3141 17.678C12.1836 17.6481 12.0998 17.6996 12.041 17.7194C11.7222 17.8854 11.4237 18.0288 11.1481 18.1772C10.8914 18.3144 10.6551 18.457 10.4047 18.6012C10.1789 18.7316 9.91791 18.8546 9.64971 18.9826C9.64971 18.9826 8.8848 19.366 8.46709 19.515C8.10465 19.8108 7.36378 20.3228 6.91164 20.5763C6.68771 20.6827 6.25266 20.9584 6.05203 21.02C5.93752 21.1122 5.52959 21.4033 5.21026 21.6433C4.96354 21.8278 4.77708 21.9835 4.77708 21.9835C4.63378 22.112 4.64351 22.173 4.37097 22.0572C4.29529 22.1193 4.2369 22.1581 4.18824 22.1938C3.99139 22.3366 3.9747 22.3021 3.90279 22.2984C3.76549 22.4172 3.7483 22.3557 3.62834 22.4924C3.54953 22.6143 3.63016 22.5852 3.46396 22.6444C3.42897 22.658 3.41233 22.7002 3.3853 22.7237C3.25173 22.8338 3.25123 23.1446 2.93119 23.1667C2.74599 23.299 2.79339 23.4585 2.65185 23.4516C2.66052 23.5887 2.40145 23.7888 2.3547 23.7882C1.94673 23.929 1.91839 23.6289 1.42863 23.8528C1.3652 23.8817 1.27232 23.9619 1.1499 23.9851C0.934539 24.0257 0.674204 23.9832 0.515472 23.8601C0.265576 23.6676 0.0355455 23.2959 0.0355455 23.2959C-0.0438708 23.1082 0.00231674 22.9895 0.250247 22.8122C0.353564 22.7464 0.372674 22.6972 0.54623 22.6854C0.632403 22.6528 0.608957 22.7027 0.762898 22.6473C0.852097 22.6153 0.852097 22.6382 1.03175 22.6228C1.0729 22.5951 1.13073 22.5852 1.20829 22.56C1.35043 22.5131 1.48894 22.4609 1.48894 22.4609C1.48894 22.4609 1.52514 22.4246 1.66184 22.4376C1.77751 22.3902 1.89631 22.3199 1.95722 22.2983C1.94174 22.1151 1.96145 22.1237 2.04637 22.0499C2.15221 21.9587 2.17121 21.9736 2.25008 22.0301C2.28331 22.011 2.29929 22.0043 2.29561 21.9765C2.28265 21.8811 2.20091 21.8362 2.22552 21.6258C2.18917 21.5416 2.13567 21.4376 2.14742 21.3748C2.16461 21.307 2.18125 21.2744 2.22239 21.2528C2.26616 21.2296 2.28028 21.261 2.30368 21.2873C2.34543 21.336 2.37936 21.48 2.37936 21.48C2.39414 21.6425 2.44456 21.8529 2.60516 21.7342C2.69985 21.6381 2.71831 21.3823 2.91148 21.4369L3.04938 21.5568C3.16631 21.4468 3.17186 21.4468 3.242 21.4025C3.242 21.4025 3.13243 21.2918 3.22849 21.2056C3.29429 21.1471 3.3736 21.1052 3.51459 20.949C3.90158 20.5214 4.1003 20.3324 4.51881 19.9878C5.35377 19.301 6.30379 18.8194 6.90745 18.5799C7.10426 18.3301 7.29571 18.164 7.73258 18.122C8.25183 17.2452 9.24618 16.462 9.47459 16.3371C9.66035 16.0004 9.74093 16.0363 9.98402 15.9687C10.1765 15.8142 10.2202 15.8142 10.3064 15.653C10.3901 15.3202 10.1133 14.431 10.8201 14.3861C10.9703 14.1738 10.9327 14.2249 11.1001 14.0242C10.9869 13.7448 10.9401 13.5112 10.9094 13.3098C10.9039 13.2865 10.6289 13.0926 10.7069 12.8397C10.5901 12.7007 10.3716 12.3762 10.3033 12.2242C10.272 12.2248 10.246 12.213 10.2117 12.2083C10.176 12.2027 10.1316 12.2046 10.0818 12.2003C9.97171 12.4845 9.85176 12.5055 9.65607 12.5682C9.30653 13.313 9.1835 13.6282 8.19465 14.244C7.80216 14.6835 7.67656 15.1732 7.67837 15.1659C7.61081 15.3109 7.63471 15.5141 7.67041 15.623C7.61872 15.7842 7.63224 15.8003 7.63224 15.8003C7.65377 15.8612 7.70979 15.9419 7.77866 15.9589C7.89741 15.9904 8.01621 15.9853 8.0093 16.1176C7.99337 16.2831 7.77619 16.2561 7.67338 16.2376C7.27771 16.1748 7.40271 15.917 7.14974 16.003C6.95591 16.1299 6.8833 16.504 6.567 16.4554C6.5252 16.4278 6.53805 16.3459 6.56634 16.2868C6.61071 16.1945 6.68937 16.1182 6.64268 16.0836C6.43711 16.1483 6.0249 16.285 6.0249 16.285C5.83107 16.3378 5.61869 16.2412 5.80949 16.1138C5.89814 16.0793 6.0249 16.0362 6.18121 15.936C6.18121 15.936 6.26169 15.8264 6.10734 15.8813C5.93868 15.9416 5.69009 15.979 5.51169 15.9594C5.51169 15.9594 5.14189 15.9108 5.09449 15.8818C5.04644 15.8528 5.00277 15.7385 5.11849 15.7391C5.26497 15.7403 5.63165 15.6973 5.91594 15.6215C6.05324 15.568 6.31408 15.4136 6.46056 15.341C6.46056 15.341 6.61929 15.1096 6.70667 15.0641C6.85244 14.8962 6.97558 14.797 7.10471 14.6254C7.23087 14.365 7.36131 13.9528 7.77907 13.3148C7.97229 13.0206 8.21225 12.678 8.51439 12.3717C8.51439 12.3717 8.59254 11.8814 8.98574 11.5325C9.07257 11.3281 9.20417 11.0876 9.33401 10.8648C9.38449 10.7793 9.43244 10.7048 9.48044 10.6236C9.60231 10.4322 9.73029 10.076 10.2053 10.02C10.2053 10.02 10.4084 9.86988 10.4865 9.76329C10.6084 9.65931 10.5807 9.49756 10.6797 9.3836C10.5283 9.23596 10.1413 8.95848 10.1037 8.57265C10.0637 8.16346 10.2095 7.82689 10.4569 7.57775C10.7313 7.3033 11.0206 7.16614 11.3719 7.18702C11.8105 7.25217 11.8936 7.39744 12.0332 7.54139C12.1673 7.67799 12.2173 7.5901 12.2738 7.74999C12.6418 7.84787 12.6214 7.80485 12.6183 8.07558C12.6749 8.15176 12.7697 8.22266 12.7684 8.38079C12.8922 8.12413 12.9167 8.07684 13.2471 7.79442C13.3254 7.56489 13.3783 7.33915 13.447 7.10957C13.5114 6.89734 13.5915 6.67891 13.6536 6.51453C13.5878 6.05059 13.7229 5.97374 13.9034 5.56703C13.8714 5.51101 13.8782 5.49502 13.8918 5.4033C13.9619 5.1345 14.0714 4.77876 14.1367 4.54682C14.1367 4.54682 14.1581 4.45454 14.2535 4.44769C14.336 4.15422 14.4598 3.60779 14.4805 3.49645C14.5655 3.18943 14.5108 3.09095 14.4455 2.91805C14.4245 2.86138 14.4345 2.7808 14.3982 2.71797C14.2954 2.53897 14.1848 2.30637 14.1097 2.14018C14.061 2.03439 13.9841 1.63554 13.9841 1.63554C13.9185 1.43213 13.9758 1.63579 13.9758 1.63579Z" fill="white"/>
</svg>
